# xmcd
#
# Track frame offsets: 
#        150
#        21036
#        41280
#        60248
#        86099
#        88948
#        105576
#        126286
#        144868
#        159982
#        178455
#        195526
#        202013
#        214487
#        224238
#
# Disc length: 3180 seconds
#
# Revision: 0
# Processed by: cddbd v1.5.2PL0 Copyright (c) Steve Scherf et al.
# Submitted via: ExactAudioCopyFreeDBPlugin 1.0
#
DISCID=de0c6a0f
DTITLE=Tinashe - In Case We Die
DYEAR=2012
DGENRE=R&B
TTITLE0=The Last Night On Earth
TTITLE1=My High
TTITLE2=Let You Love Me
TTITLE3=That
TTITLE4=The Will To Survive
TTITLE5=Boss
TTITLE6=I Tried
TTITLE7=Another Season
TTITLE8=This Feeling
TTITLE9=Stumble
TTITLE10=Crossing the Cosmo
TTITLE11=Fading
TTITLE12=Biding My Time
TTITLE13=Heaven
TTITLE14=Chainless (Bonus Track)
EXTD=
EXTT0=
EXTT1=
EXTT2=
EXTT3=
EXTT4=
EXTT5=
EXTT6=
EXTT7=
EXTT8=
EXTT9=
EXTT10=
EXTT11=
EXTT12=
EXTT13=
EXTT14=
PLAYORDER=
